<svg width="31" height="21" viewBox="0 0 31 21" fill="none" xmlns="http://www.w3.org/2000/svg">
<path d="M17.5714 1.10979C12.6975 0.910948 9.52941 1.02694 8.55462 1.10979L4.89916 2.35257L2.94958 3.59535L1.97479 5.08668L1 7.57223C1 7.98649 1 9.01385 1 9.80923C1 10.6046 3.59944 12.4605 4.89916 13.289C7.17367 13.869 11.8689 15.0289 12.4538 15.0289C13.1849 15.0289 18.3025 15.526 19.2773 15.7746C20.2521 16.0231 24.395 16.5202 25.6134 16.5202C26.5882 16.5202 28.4566 16.5202 29.2689 16.5202H30M30 16.5202L24.8824 20M30 16.5202L25.6134 12.5433" stroke="white"/>
</svg>
