<svg width="47" height="59" viewBox="0 0 47 59" fill="none" xmlns="http://www.w3.org/2000/svg">
<path fill-rule="evenodd" clip-rule="evenodd" d="M30.5714 48.31H24.7856C26.061 44.6088 27.3349 43.1357 30.5714 41.47V48.31ZM26.7142 47.17H29.5194V43.2614C27.7808 44.4804 27.159 45.3325 26.7142 47.17Z" fill="black"/>
<path d="M30.5714 48.31C28.3119 48.31 27.0451 48.31 24.7856 48.31M30.5714 48.31V41.47C27.3349 43.1357 26.061 44.6088 24.7856 48.31M30.5714 48.31H24.7856M29.5194 47.17H26.7142C27.159 45.3325 27.7808 44.4804 29.5194 43.2614V47.17Z" stroke="black"/>
<path fill-rule="evenodd" clip-rule="evenodd" d="M20.9287 48.31V41.47H26.7144L22.682 46.258V48.31H20.9287ZM21.8053 42.496V44.206C23.2079 44.377 23.5929 43.5485 24.0846 42.496H21.8053Z" fill="black" stroke="black"/>
<path d="M37.6132 48.3099H38.9289V41.863H37.6132V48.3099Z" fill="black"/>
<path d="M40.4089 41.863V48.3099H41.889V46.8948L44.6847 44.2217V48.3099H46.0003V42.1775H44.6847L41.889 44.6934V41.863H40.4089Z" fill="black"/>
<path d="M45.3425 39.1899L42.8757 40.6051V42.1775L46.0003 40.6051V39.1899H45.3425Z" fill="black"/>
<path fill-rule="evenodd" clip-rule="evenodd" d="M31.8574 48.3099V41.863H33.173V44.2217C35.4 45.0879 36.2148 46.0348 37.1199 48.3099H31.8574ZM33.173 45.9513V47.5237H35.4754C34.882 46.6283 34.3561 46.3034 33.173 45.9513Z" fill="black"/>
<path d="M37.6132 48.3099H38.9289V41.863H37.6132V48.3099Z" stroke="black"/>
<path d="M40.4089 41.863V48.3099H41.889V46.8948L44.6847 44.2217V48.3099H46.0003V42.1775H44.6847L41.889 44.6934V41.863H40.4089Z" stroke="black"/>
<path d="M45.3425 39.1899L42.8757 40.6051V42.1775L46.0003 40.6051V39.1899H45.3425Z" stroke="black"/>
<path fill-rule="evenodd" clip-rule="evenodd" d="M31.8574 48.3099V41.863H33.173V44.2217C35.4 45.0879 36.2148 46.0348 37.1199 48.3099H31.8574ZM33.173 45.9513V47.5237H35.4754C34.882 46.6283 34.3561 46.3034 33.173 45.9513Z" stroke="black"/>
<path d="M11.9287 52.4326V51.16H17.7306L15.7414 54.5005L16.9018 56.2503L17.7306 58H11.9287V56.2503L14.7468 56.4093L13.2549 54.5005L15.0783 52.4326H11.9287Z" fill="black"/>
<path d="M19.8856 58H18.3937V51.16H19.8856V53.5461H22.3721V51.16H24.0298V58H22.3721V54.9777H19.8856V58Z" fill="black"/>
<path fill-rule="evenodd" clip-rule="evenodd" d="M26.8478 56.4093V58H24.8586C25.8066 54.5872 26.897 53.1136 29.6659 51.16H30.4948V58H28.8371V56.4093H26.8478ZM27.3452 55.2958C27.6767 55.1898 28.5055 55.0413 29.1686 55.2958V53.2279C28.0364 53.8105 27.5787 54.2303 27.3452 55.2958Z" fill="black"/>
<path d="M33.4786 54.9777V58H31.8209V51.16H33.4786V53.5461L35.7993 51.16H37.2912V52.4326L35.302 54.0233L38.2859 58H35.7993L33.4786 54.9777Z" fill="black"/>
<path d="M11.9287 52.4326V51.16H17.7306L15.7414 54.5005L16.9018 56.2503L17.7306 58H11.9287V56.2503L14.7468 56.4093L13.2549 54.5005L15.0783 52.4326H11.9287Z" stroke="black"/>
<path d="M19.8856 58H18.3937V51.16H19.8856V53.5461H22.3721V51.16H24.0298V58H22.3721V54.9777H19.8856V58Z" stroke="black"/>
<path fill-rule="evenodd" clip-rule="evenodd" d="M26.8478 56.4093V58H24.8586C25.8066 54.5872 26.897 53.1136 29.6659 51.16H30.4948V58H28.8371V56.4093H26.8478ZM27.3452 55.2958C27.6767 55.1898 28.5055 55.0413 29.1686 55.2958V53.2279C28.0364 53.8105 27.5787 54.2303 27.3452 55.2958Z" stroke="black"/>
<path d="M33.4786 54.9777V58H31.8209V51.16H33.4786V53.5461L35.7993 51.16H37.2912V52.4326L35.302 54.0233L38.2859 58H35.7993L33.4786 54.9777Z" stroke="black"/>
<path d="M14.5 42.04C14.5 42.5294 14.7143 44.181 14.8214 44.9456L19.6429 48.31V46.6278L17.5536 45.4044H19.1607V43.8752H16.4286V43.1105H19.6429V42.04H14.5Z" fill="black" stroke="black"/>
<path d="M24.1426 23.23H30.5711L24.1426 31.78V23.23Z" fill="white" stroke="white"/>
<path d="M18.8818 6.78998H12.5713V10.3833L18.2346 23.6133L23.8978 31.78V22.96H18.8818V6.78998Z" fill="black"/>
<path d="M24.2214 9.89331V3.84998H29.8847L36.357 5.31998L35.548 9.89331H24.2214Z" fill="white"/>
<path d="M23.8978 18.55V13.9766H34.4153L32.4736 18.55H23.8978Z" fill="white"/>
<path d="M13.8538 22.3985C17.2089 28.295 19.4467 31.3277 23.967 36.34L24.1295 36.0772C20.8975 30.4322 19.1484 27.2454 15.0144 21.9122L10.8696 9.75394L10.538 4.40431L16.3407 3.10743H29.2722L38.0591 4.40431L37.0644 10.4024L32.588 22.3985C28.7606 27.5006 27.0954 30.5808 24.1295 36.0772L24.2986 36.34C29.1198 31.2809 31.7183 28.3843 34.9091 22.3985C37.1933 17.8903 38.309 15.3091 39.3854 10.4024L40.2144 3.59376L29.2722 1H16.3407L8.71436 3.10743L9.04593 9.75394C10.527 14.9606 11.2923 17.9234 13.8538 22.3985Z" fill="white"/>
<path d="M24.1295 36.0772L23.967 36.34C19.4467 31.3277 17.2089 28.295 13.8538 22.3985C11.2923 17.9234 10.527 14.9606 9.04593 9.75394L8.71436 3.10743L16.3407 1H29.2722L40.2144 3.59376L39.3854 10.4024C38.309 15.3091 37.1933 17.8903 34.9091 22.3985C31.7183 28.3843 29.1198 31.2809 24.2986 36.34L24.1295 36.0772ZM24.1295 36.0772C20.8975 30.4322 19.1484 27.2454 15.0144 21.9122L10.8696 9.75394L10.538 4.40431L16.3407 3.10743H29.2722L38.0591 4.40431L37.0644 10.4024L32.588 22.3985C28.7606 27.5006 27.0954 30.5808 24.1295 36.0772Z" stroke="white"/>
<path d="M4.94684 48.31H3.46678V43.2197H1V41.47H7.08472V43.2197H4.94684V48.31Z" fill="black"/>
<path fill-rule="evenodd" clip-rule="evenodd" d="M8.07143 48.31V41.47H13.6628L12.0183 44.4923L15.1429 48.31H8.07143ZM9.71595 42.7425V44.4923L11.5249 42.7425H9.71595ZM11.0316 45.1286L9.71595 46.083V46.8783H12.8405L11.0316 45.1286Z" fill="black"/>
<path d="M4.94684 48.31H3.46678V43.2197H1V41.47H7.08472V43.2197H4.94684V48.31Z" stroke="black"/>
<path fill-rule="evenodd" clip-rule="evenodd" d="M8.07143 48.31V41.47H13.6628L12.0183 44.4923L15.1429 48.31H8.07143ZM9.71595 42.7425V44.4923L11.5249 42.7425H9.71595ZM11.0316 45.1286L9.71595 46.083V46.8783H12.8405L11.0316 45.1286Z" stroke="black"/>
</svg>
