<svg width="30" height="30" viewBox="0 0 30 30" fill="none" xmlns="http://www.w3.org/2000/svg">
<circle cx="15" cy="15" r="15" fill="white"/>
<path d="M21.7612 19.1832L18.7948 16.4861C18.6546 16.3587 18.4703 16.2907 18.2809 16.2966C18.0915 16.3024 17.9118 16.3816 17.7797 16.5175L16.0334 18.3134C15.6131 18.2331 14.7681 17.9697 13.8982 17.102C13.0284 16.2314 12.7649 15.3842 12.6869 14.9668L14.4813 13.2198C14.6173 13.0878 14.6967 12.9081 14.7025 12.7187C14.7084 12.5292 14.6403 12.3449 14.5127 12.2048L11.8163 9.23913C11.6886 9.09855 11.5112 9.01328 11.3216 9.00142C11.1321 8.98957 10.9454 9.05207 10.8012 9.17564L9.21767 10.5337C9.0915 10.6603 9.0162 10.8288 9.00604 11.0073C8.9951 11.1897 8.78639 15.5112 12.1374 18.8636C15.0607 21.7862 18.7225 22 19.731 22C19.8785 22 19.9689 21.9956 19.993 21.9942C20.1715 21.9842 20.3399 21.9085 20.4659 21.7818L21.8232 20.1976C21.9473 20.0538 22.0102 19.8673 21.9986 19.6778C21.9871 19.4882 21.9018 19.3108 21.7612 19.1832Z" fill="#C2A361"/>
</svg>
