<svg width="30" height="30" viewBox="0 0 30 30" fill="none" xmlns="http://www.w3.org/2000/svg">
<circle cx="15" cy="15" r="15" fill="white"/>
<path fill-rule="evenodd" clip-rule="evenodd" d="M21.1479 8.84676C20.4561 8.15364 19.6329 7.60404 18.726 7.22981C17.8192 6.85558 16.8468 6.66417 15.8651 6.66665C11.7486 6.66665 8.39756 10.001 8.39589 14.0996C8.39589 15.4095 8.73949 16.6879 9.39256 17.8156L8.3335 21.6666L12.2927 20.6325C13.3879 21.2258 14.6148 21.5369 15.8618 21.5375H15.8651C19.9807 21.5375 23.3318 18.2031 23.3335 14.1045C23.3363 13.1279 23.1446 12.1604 22.7695 11.2579C22.3943 10.3555 21.8432 9.53596 21.1479 8.84676ZM15.8651 20.283H15.8626C14.7507 20.2832 13.6593 19.9854 12.7029 19.4211L12.4766 19.287L10.1272 19.9005L10.7536 17.621L10.6064 17.3875C9.98473 16.4026 9.65565 15.2627 9.65712 14.0996C9.65878 10.6932 12.4433 7.92189 15.8676 7.92189C16.6831 7.92009 17.4909 8.07928 18.2442 8.39025C18.9975 8.70122 19.6813 9.15779 20.2561 9.73355C20.834 10.3066 21.292 10.9879 21.6038 11.7381C21.9155 12.4884 22.0747 13.2927 22.0722 14.1045C22.0706 17.5109 19.2861 20.283 15.8651 20.283ZM19.2702 15.6554C19.0831 15.5618 18.1663 15.113 17.9949 15.0509C17.8243 14.9888 17.7004 14.9582 17.5756 15.1437C17.4508 15.3291 17.093 15.7473 16.9841 15.8715C16.8751 15.9957 16.7661 16.0106 16.5797 15.9179C16.3934 15.8251 15.7919 15.6289 15.0789 14.9963C14.524 14.5036 14.1496 13.8959 14.0406 13.7096C13.9317 13.5233 14.029 13.4231 14.123 13.3304C14.207 13.2476 14.3094 13.1134 14.4025 13.005C14.4957 12.8965 14.5265 12.8195 14.5889 12.6953C14.6513 12.5711 14.6205 12.4626 14.5731 12.3699C14.5265 12.2763 14.153 11.3622 13.9974 10.9904C13.8468 10.6303 13.6929 10.6783 13.5781 10.6733C13.4592 10.6685 13.3402 10.6663 13.2212 10.6667C13.1265 10.6691 13.0334 10.6909 12.9477 10.7308C12.8619 10.7707 12.7854 10.8278 12.7228 10.8985C12.5515 11.0848 12.0698 11.5336 12.0698 12.4477C12.0698 13.3618 12.7386 14.2453 12.8318 14.3695C12.925 14.4937 14.148 16.3691 16.0198 17.1739C16.4658 17.3652 16.8135 17.4795 17.0839 17.5656C17.5306 17.7071 17.9375 17.6865 18.2594 17.6393C18.618 17.5863 19.3634 17.1905 19.519 16.7566C19.6746 16.3227 19.6746 15.951 19.628 15.8731C19.5814 15.7953 19.4558 15.7481 19.2702 15.6554Z" fill="#C2A361"/>
</svg>
